<svg width="64" height="64" viewBox="0 0 64 64" fill="none" xmlns="http://www.w3.org/2000/svg">
<path d="M33.4142 49.2525C32.6332 50.0335 31.3668 50.0335 30.5858 49.2525L17.4142 36.0809C16.6332 35.2998 16.6332 34.0335 17.4142 33.2525L18.323 32.3437C19.1025 31.5642 20.3659 31.5625 21.1475 32.3399L30.5896 41.7307C31.3698 42.5066 32.6302 42.5066 33.4104 41.7307L42.8525 32.3399C43.6341 31.5625 44.8975 31.5642 45.677 32.3437L46.5858 33.2525C47.3668 34.0335 47.3668 35.2998 46.5858 36.0809L33.4142 49.2525ZM33.4142 33.2525C32.6332 34.0335 31.3668 34.0335 30.5858 33.2525L17.4142 20.0809C16.6332 19.2998 16.6332 18.0335 17.4142 17.2525L18.323 16.3437C19.1025 15.5642 20.3659 15.5624 21.1475 16.3399L30.5896 25.7307C31.3698 26.5066 32.6302 26.5066 33.4104 25.7307L42.8525 16.3399C43.6341 15.5625 44.8975 15.5642 45.677 16.3437L46.5858 17.2525C47.3668 18.0335 47.3668 19.2998 46.5858 20.0809L33.4142 33.2525Z" fill="white"/>
</svg>
